<svg width="82" height="51" viewBox="0 0 82 51" fill="none" xmlns="http://www.w3.org/2000/svg">
<path d="M82 4.78514V46.206C80.8822 48.9098 79.0759 50.6087 76.0803 50.9911H6.55463C3.13871 50.7421 1.3145 49.3012 0 46.206V4.78514C1.11778 2.08127 2.9241 0.373561 5.91974 0H75.4454C78.8613 0.249041 80.6855 1.68992 82 4.78514ZM2.56641 7.64911H70.9564C71.8864 7.64911 72.1189 10.2018 70.6345 10.2018H2.56641V46.0459C2.56641 46.6151 4.7036 48.6964 5.59782 48.4384L77.4305 48.1894C78.906 47.3622 79.684 45.7524 79.7197 44.098C79.7376 43.4754 79.4157 42.8795 79.4157 42.2302C79.4694 31.557 79.4068 20.875 79.4336 10.2018C77.7346 10.1039 73.952 10.9756 74.6048 8.18277C74.8284 7.22218 79.7019 7.96041 79.7555 7.49791C79.6482 5.29212 78.906 2.85508 76.3932 2.55267H5.9108C3.04929 2.8106 2.21767 5.06086 2.56641 7.658V7.64911Z" fill="#2A4E36"/>
<path d="M42.3786 33.1257L42.3782 35.7051L74.3376 35.7106L74.3381 33.1313L42.3786 33.1257Z" fill="#2A4E36"/>
<path d="M42.3783 38.22L42.3774 40.7993L64.0176 40.8068L64.0185 38.2275L42.3783 38.22Z" fill="#2A4E36"/>
<path d="M61.898 21.2752C60.8428 20.2523 61.9785 19.2562 63.2572 19.1227C65.2603 18.9093 70.9475 18.847 72.8522 19.1405C74.0505 19.3273 74.8553 20.0744 73.9968 21.1951C73.5676 21.5242 73.0847 21.6132 72.5571 21.6754C70.411 21.9245 65.77 21.8711 63.5702 21.6754C63.0605 21.6309 62.2736 21.622 61.898 21.2663V21.2752Z" fill="#2A4E36"/>
<path d="M61.898 26.3716C60.8428 25.3488 61.9785 24.3526 63.2572 24.2192C65.2603 24.0057 70.9475 23.9435 72.8522 24.237C74.0505 24.4238 74.8553 25.1709 73.9968 26.2916C73.5676 26.6206 73.0847 26.7096 72.5571 26.7719C70.411 27.0209 65.77 26.9675 63.5702 26.7719C63.0605 26.7274 62.2736 26.7185 61.898 26.3627V26.3716Z" fill="#2A4E36"/>
<path d="M39.3189 33.5315C41.3577 35.506 36.1444 36.3421 35.125 35.3904C33.0504 32.8822 38.3263 32.5709 39.3189 33.5315Z" fill="#2A4E36"/>
<path d="M39.3189 38.628C41.3577 40.6026 36.1444 41.4386 35.125 40.4869C33.0504 37.9787 38.3263 37.6674 39.3189 38.628Z" fill="#2A4E36"/>
<path d="M56.1391 27.8036C55.1734 28.7642 55.3343 30.2585 52.9289 30.5253C50.1926 30.8277 49.6113 28.364 48.7976 28.0882C48.27 27.9104 44.9435 27.9459 44.5232 28.195C43.4949 28.8176 43.2624 30.8188 40.6065 30.5253C38.2011 30.2585 38.362 28.7642 37.3963 27.8036C36.9581 27.3678 36.0907 27.3856 35.4111 26.4339C34.1592 24.6639 34.3023 21.4531 36.0281 20.0656C37.6198 18.7937 39.2205 19.5052 40.3651 18.9627C40.8837 18.7136 42.0552 16.5345 43.3428 15.8675C45.2922 14.8624 50.2105 14.9602 52.0615 16.2499C52.911 16.8458 54.0019 18.7225 54.4669 18.9538C55.2807 19.3718 56.2286 19.1317 57.3284 19.9322C59.4477 21.4887 59.5908 25.1887 57.6861 26.9409C57.1764 27.4123 56.4342 27.5279 56.1481 27.8036H56.1391ZM52.9378 21.2574C52.1151 20.5814 51.7485 18.4379 50.2999 17.9843C49.4146 17.7086 45.6857 17.6997 44.7468 17.9131C43.0209 18.2956 42.7616 20.7593 41.7332 21.3641C40.535 22.0668 38.8181 21.2485 37.6019 21.9512C36.6362 22.7161 37.2443 25.5445 37.7897 25.1709C38.5588 22.9118 41.3756 22.4404 43.2266 23.7478C43.8704 24.2014 44.2728 25.2776 44.7289 25.4377C45.2565 25.6156 48.583 25.58 49.0033 25.331C49.3699 25.1086 49.6829 24.1303 50.4966 23.6322C51.8648 22.7872 53.1971 22.805 54.5653 23.6322C55.4953 24.1925 55.4327 25.1709 56.3716 25.1798L56.2375 21.9778C55.7904 21.3464 53.8678 22.0223 52.9468 21.2663L52.9378 21.2574ZM42.2966 26.763C42.2966 26.0514 41.7154 25.4733 41 25.4733C40.2846 25.4733 39.7034 26.0514 39.7034 26.763C39.7034 27.4745 40.2846 28.0527 41 28.0527C41.7154 28.0527 42.2966 27.4745 42.2966 26.763ZM53.832 26.763C53.832 26.0514 53.2508 25.4733 52.5354 25.4733C51.82 25.4733 51.2388 26.0514 51.2388 26.763C51.2388 27.4745 51.82 28.0527 52.5354 28.0527C53.2508 28.0527 53.832 27.4745 53.832 26.763Z" fill="#2A4E36"/>
<path d="M10.2478 28.2039C10.1315 28.8798 9.22838 29.4402 8.54877 29.2712C8.26262 29.1645 7.97647 28.951 7.84233 28.6753C7.5383 28.0438 7.54724 19.8254 7.7082 18.6692C7.91387 17.2283 9.13001 15.8141 10.5518 15.4405C12.698 14.8802 23.7505 15.0403 26.4332 15.2804C29.241 15.5295 30.5108 16.7836 30.7612 19.5853C31.1815 24.3526 31.253 34.6611 30.7523 39.3485C30.5555 41.1896 29.6792 42.6305 27.8103 43.1107C25.4227 43.7245 14.5311 43.6088 11.6785 43.342C9.92587 43.1819 8.26262 42.3014 7.82445 40.4869C7.51147 39.1972 7.50253 34.67 7.67243 33.2736C7.77974 32.3486 8.27156 31.7972 9.28203 32.0017C10.4445 32.74 10.3193 33.7984 10.2567 35.0436C10.4445 35.2571 14.2092 33.4337 15.1928 33.4693C16.7845 33.5316 18.3762 35.4527 19.3599 35.3727C20.3435 35.2926 21.7117 33.3804 23.518 33.4693C24.9219 33.5316 26.7193 34.9013 28.1858 35.0436V18.6336C28.1858 18.5802 27.4436 17.8331 27.3811 17.8331H10.7307L10.2478 18.3134C9.89904 21.3108 10.7217 25.3399 10.2478 28.1861V28.2039ZM28.1501 37.6318L23.2408 36.0131L19.0559 38.2189C17.5625 37.7297 16.2569 35.8352 14.6026 36.0042C13.4223 36.1287 11.607 37.4629 10.2925 37.6407L10.5518 40.647L27.6583 40.7982C28.2753 40.6559 28.2842 38.21 28.1501 37.6407V37.6318Z" fill="#2A4E36"/>
<path d="M24.2334 26.7629C24.2334 29.5469 21.971 31.7971 19.1721 31.7971C16.3732 31.7971 14.1108 29.5469 14.1108 26.7629C14.1108 23.979 16.3732 21.7288 19.1721 21.7288C21.971 21.7288 24.2334 23.979 24.2334 26.7629ZM21.819 26.7807C21.819 25.3399 20.6386 24.1658 19.19 24.1658C17.7414 24.1658 16.561 25.3399 16.561 26.7807C16.561 28.2216 17.7414 29.3957 19.19 29.3957C20.6386 29.3957 21.819 28.2216 21.819 26.7807Z" fill="#2A4E36"/>
</svg>
